<svg xmlns="http://www.w3.org/2000/svg" viewBox="0 0 1440 320">
  <path fill="#0099ff" fill-opacity="1" d="M0,32L30,37.3C60,43,120,53,180,90.7C240,128,300,192,360,197.3C420,203,480,149,540,160C600,171,660,245,720,245.3C780,245,840,171,900,154.7C960,139,1020,181,1080,165.3C1140,149,1200,75,1260,53.3C1320,32,1380,64,1410,80L1440,96L1440,0L1410,0C1380,0,1320,0,1260,0C1200,0,1140,0,1080,0C1020,0,960,0,900,0C840,0,780,0,720,0C660,0,600,0,540,0C480,0,420,0,360,0C300,0,240,0,180,0C120,0,60,0,30,0L0,0Z"></path>
</svg>
